<svg width="512" height="512" viewBox="0 0 512 512" fill="none" xmlns="http://www.w3.org/2000/svg">
  <!-- Background Circle -->
  <circle cx="256" cy="256" r="256" fill="#1d4ed8" />
  
  <!-- Sun -->
  <circle cx="180" cy="220" r="64" fill="#FDB813"/>
  <circle cx="180" cy="220" r="52" fill="#FEC111"/>
  
  <!-- Cloud -->
  <path d="M384 296c0-26.51-21.49-48-48-48-4.27 0-8.42.56-12.38 1.61C317.67 218.53 289.46 196 256 196c-39.7 0-72 32.3-72 72 0 .56.01 1.12.03 1.67C184.02 269.24 184 268.62 184 268c0-30.93 25.07-56 56-56s56 25.07 56 56c0 .62-.02 1.24-.03 1.67.02-.55.03-1.11.03-1.67 0-26.51-21.49-48-48-48-4.27 0-8.42.56-12.38 1.61C229.67 190.53 201.46 168 168 168c-39.7 0-72 32.3-72 72 0 33.91 23.49 62.36 55.09 69.93C152.95 312.54 156 315.85 156 320c0 6.63-5.37 12-12 12h-8c-13.25 0-24 10.75-24 24s10.75 24 24 24h248c30.93 0 56-25.07 56-56 0-30.93-25.07-56-56-56z" fill="white"/>
  
  <!-- Rain Drops -->
  <path d="M200 380l-8 24M240 380l-8 24M280 380l-8 24" stroke="#60A5FA" stroke-width="8" stroke-linecap="round"/>
  
  <!-- Lightning -->
  <path d="M320 340l-16 24h24l-16 24" stroke="#FDB813" stroke-width="4" stroke-linecap="round" stroke-linejoin="round"/>
</svg> 